<svg xmlns="http://www.w3.org/2000/svg" width="1200" height="650" viewBox="0 0 1200 650" role="img"><rect width="100%" height="100%" fill="#f8fafc"/><style>text{font-family:Inter,Arial,sans-serif;fill:#172033}.title{font-size:28px;font-weight:700}.sub{font-size:15px;fill:#526072}.label{font-size:14px}.value{font-size:24px;font-weight:700}.axis{stroke:#94a3b8;stroke-width:1}.grid{stroke:#dbe3ec;stroke-width:1}.target{stroke:#64748b;stroke-width:2;stroke-dasharray:8 6}.note{font-size:13px;fill:#526072}</style><text x="60.0" y="48.0" class="title" text-anchor="start">The dual remainder vanishes while the linear variance is preserved</text><text x="60.0" y="77.0" class="sub" text-anchor="start">Exact pathwise decomposition; 10,000 paths per n</text><line x1="105.0" y1="545.0" x2="1140.0" y2="545.0" class="grid"/><text x="90.0" y="550.0" class="label" text-anchor="end">0</text><line x1="105.0" y1="460.0" x2="1140.0" y2="460.0" class="grid"/><text x="90.0" y="465.0" class="label" text-anchor="end">0.015</text><line x1="105.0" y1="375.0" x2="1140.0" y2="375.0" class="grid"/><text x="90.0" y="380.0" class="label" text-anchor="end">0.03</text><line x1="105.0" y1="290.0" x2="1140.0" y2="290.0" class="grid"/><text x="90.0" y="295.0" class="label" text-anchor="end">0.045</text><line x1="105.0" y1="205.0" x2="1140.0" y2="205.0" class="grid"/><text x="90.0" y="210.0" class="label" text-anchor="end">0.06</text><line x1="105.0" y1="120.0" x2="1140.0" y2="120.0" class="grid"/><text x="90.0" y="125.0" class="label" text-anchor="end">0.075</text><line x1="105.0" y1="120.0" x2="105.0" y2="545.0" class="axis"/><line x1="105.0" y1="545.0" x2="1140.0" y2="545.0" class="axis"/><line x1="105.0" y1="545.0" x2="1140.0" y2="545.0" class="target"/><text x="1136.0" y="537.0" class="note" text-anchor="end">target 0</text><text x="105.0" y="573.0" class="label" text-anchor="middle">200</text><text x="450.0" y="573.0" class="label" text-anchor="middle">1000</text><text x="795.0" y="573.0" class="label" text-anchor="middle">5000</text><text x="1140.0" y="573.0" class="label" text-anchor="middle">50000</text><polyline points="105.0,145.8 450.0,367.8 795.0,467.3 1140.0,519.8" fill="none" stroke="#2563eb" stroke-width="4"/><circle cx="105.0" cy="145.8" r="5" fill="#2563eb"/><circle cx="450.0" cy="367.8" r="5" fill="#2563eb"/><circle cx="795.0" cy="467.3" r="5" fill="#2563eb"/><circle cx="1140.0" cy="519.8" r="5" fill="#2563eb"/><polyline points="105.0,535.2 450.0,540.3 795.0,544.3 1140.0,544.3" fill="none" stroke="#059669" stroke-width="4"/><circle cx="105.0" cy="535.2" r="5" fill="#059669"/><circle cx="450.0" cy="540.3" r="5" fill="#059669"/><circle cx="795.0" cy="544.3" r="5" fill="#059669"/><circle cx="1140.0" cy="544.3" r="5" fill="#059669"/><rect x="105.0" y="585" width="18" height="5" fill="#2563eb"/><text x="131.0" y="592.0" class="label" text-anchor="start">T1/T2 RMS</text><rect x="365.0" y="585" width="18" height="5" fill="#059669"/><text x="391.0" y="592.0" class="label" text-anchor="start">|variance ratio - 1|</text><text x="28.0" y="332.5" class="note" text-anchor="start">error</text></svg>
