<svg xmlns="http://www.w3.org/2000/svg" width="1200" height="650" viewBox="0 0 1200 650" role="img"><rect width="100%" height="100%" fill="#f8fafc"/><style>text{font-family:Inter,Arial,sans-serif;fill:#172033}.title{font-size:28px;font-weight:700}.sub{font-size:15px;fill:#526072}.label{font-size:14px}.value{font-size:24px;font-weight:700}.axis{stroke:#94a3b8;stroke-width:1}.grid{stroke:#dbe3ec;stroke-width:1}.target{stroke:#64748b;stroke-width:2;stroke-dasharray:8 6}.note{font-size:13px;fill:#526072}</style><text x="60.0" y="48.0" class="title" text-anchor="start">Stopping-time CLT converges beyond the paper&#x27;s finite alpha</text><text x="60.0" y="77.0" class="sub" text-anchor="start">Exact growing boundary; 10,000 paths per predeclared b</text><line x1="105.0" y1="545.0" x2="1140.0" y2="545.0" class="grid"/><text x="90.0" y="550.0" class="label" text-anchor="end">0</text><line x1="105.0" y1="460.0" x2="1140.0" y2="460.0" class="grid"/><text x="90.0" y="465.0" class="label" text-anchor="end">0.22</text><line x1="105.0" y1="375.0" x2="1140.0" y2="375.0" class="grid"/><text x="90.0" y="380.0" class="label" text-anchor="end">0.44</text><line x1="105.0" y1="290.0" x2="1140.0" y2="290.0" class="grid"/><text x="90.0" y="295.0" class="label" text-anchor="end">0.66</text><line x1="105.0" y1="205.0" x2="1140.0" y2="205.0" class="grid"/><text x="90.0" y="210.0" class="label" text-anchor="end">0.88</text><line x1="105.0" y1="120.0" x2="1140.0" y2="120.0" class="grid"/><text x="90.0" y="125.0" class="label" text-anchor="end">1.1</text><line x1="105.0" y1="120.0" x2="105.0" y2="545.0" class="axis"/><line x1="105.0" y1="545.0" x2="1140.0" y2="545.0" class="axis"/><line x1="105.0" y1="545.0" x2="1140.0" y2="545.0" class="target"/><text x="1136.0" y="537.0" class="note" text-anchor="end">target 0</text><text x="105.0" y="573.0" class="label" text-anchor="middle">4.6</text><text x="252.9" y="573.0" class="label" text-anchor="middle">9.2</text><text x="400.7" y="573.0" class="label" text-anchor="middle">18</text><text x="548.6" y="573.0" class="label" text-anchor="middle">37</text><text x="696.4" y="573.0" class="label" text-anchor="middle">147</text><text x="844.3" y="573.0" class="label" text-anchor="middle">589</text><text x="992.1" y="573.0" class="label" text-anchor="middle">2358</text><text x="1140.0" y="573.0" class="label" text-anchor="middle">10000</text><polyline points="105.0,355.9 252.9,390.2 400.7,416.6 548.6,437.1 696.4,477.8 844.3,504.4 992.1,519.8 1140.0,531.5" fill="none" stroke="#2563eb" stroke-width="4"/><circle cx="105.0" cy="355.9" r="5" fill="#2563eb"/><circle cx="252.9" cy="390.2" r="5" fill="#2563eb"/><circle cx="400.7" cy="416.6" r="5" fill="#2563eb"/><circle cx="548.6" cy="437.1" r="5" fill="#2563eb"/><circle cx="696.4" cy="477.8" r="5" fill="#2563eb"/><circle cx="844.3" cy="504.4" r="5" fill="#2563eb"/><circle cx="992.1" cy="519.8" r="5" fill="#2563eb"/><circle cx="1140.0" cy="531.5" r="5" fill="#2563eb"/><polyline points="105.0,132.7 252.9,328.8 400.7,427.1 548.6,476.7 696.4,524.3 844.3,539.0 992.1,543.1 1140.0,544.6" fill="none" stroke="#dc2626" stroke-width="4"/><circle cx="105.0" cy="132.7" r="5" fill="#dc2626"/><circle cx="252.9" cy="328.8" r="5" fill="#dc2626"/><circle cx="400.7" cy="427.1" r="5" fill="#dc2626"/><circle cx="548.6" cy="476.7" r="5" fill="#dc2626"/><circle cx="696.4" cy="524.3" r="5" fill="#dc2626"/><circle cx="844.3" cy="539.0" r="5" fill="#dc2626"/><circle cx="992.1" cy="543.1" r="5" fill="#dc2626"/><circle cx="1140.0" cy="544.6" r="5" fill="#dc2626"/><rect x="105.0" y="585" width="18" height="5" fill="#2563eb"/><text x="131.0" y="592.0" class="label" text-anchor="start">KS distance</text><rect x="365.0" y="585" width="18" height="5" fill="#dc2626"/><text x="391.0" y="592.0" class="label" text-anchor="start">|relative centering error|</text><text x="28.0" y="332.5" class="note" text-anchor="start">error</text></svg>
