<svg xmlns="http://www.w3.org/2000/svg" width="1200" height="650" viewBox="0 0 1200 650" role="img"><rect width="100%" height="100%" fill="#f8fafc"/><style>text{font-family:Inter,Arial,sans-serif;fill:#172033}.title{font-size:28px;font-weight:700}.sub{font-size:15px;fill:#526072}.label{font-size:14px}.value{font-size:24px;font-weight:700}.axis{stroke:#94a3b8;stroke-width:1}.grid{stroke:#dbe3ec;stroke-width:1}.target{stroke:#64748b;stroke-width:2;stroke-dasharray:8 6}.note{font-size:13px;fill:#526072}</style><text x="60.0" y="48.0" class="title" text-anchor="start">Five exact claim contracts, five executable outcomes</text><text x="60.0" y="77.0" class="sub" text-anchor="start">Cumulative HF cpu-upgrade verification; *the proposition&#x27;s actual deterministic target is supported</text><rect x="55" y="125" width="205" height="270" rx="16" fill="white" stroke="#dbe3ec"/><text x="73.0" y="166.0" class="value" text-anchor="start">Claim 1</text><rect x="73" y="194" width="169" height="36" rx="18" fill="#059669" opacity="0.12"/><text x="157.5" y="218" text-anchor="middle" style="font-size:15px;font-weight:700;fill:#059669">VERIFIED</text><text x="73.0" y="272.0" class="label" text-anchor="start">variance 1.009 / 0.996</text><text x="73.0" y="304.0" class="note" text-anchor="start">verifier exit 0</text><text x="73.0" y="328.0" class="note" text-anchor="start">checker exit 0</text><text x="73.0" y="352.0" class="note" text-anchor="start">control fails</text><rect x="281" y="125" width="205" height="270" rx="16" fill="white" stroke="#dbe3ec"/><text x="299.0" y="166.0" class="value" text-anchor="start">Claim 2</text><rect x="299" y="194" width="169" height="36" rx="18" fill="#059669" opacity="0.12"/><text x="383.5" y="218" text-anchor="middle" style="font-size:15px;font-weight:700;fill:#059669">VERIFIED</text><text x="299.0" y="272.0" class="label" text-anchor="start">KS 0.0349 at b=10,000</text><text x="299.0" y="304.0" class="note" text-anchor="start">verifier exit 0</text><text x="299.0" y="328.0" class="note" text-anchor="start">checker exit 0</text><text x="299.0" y="352.0" class="note" text-anchor="start">control fails</text><rect x="507" y="125" width="205" height="270" rx="16" fill="white" stroke="#dbe3ec"/><text x="525.0" y="166.0" class="value" text-anchor="start">Claim 3</text><rect x="525" y="194" width="169" height="36" rx="18" fill="#059669" opacity="0.12"/><text x="609.5" y="218" text-anchor="middle" style="font-size:15px;font-weight:700;fill:#059669">VERIFIED</text><text x="525.0" y="272.0" class="label" text-anchor="start">remainder ratio 0.00444</text><text x="525.0" y="304.0" class="note" text-anchor="start">verifier exit 0</text><text x="525.0" y="328.0" class="note" text-anchor="start">checker exit 0</text><text x="525.0" y="352.0" class="note" text-anchor="start">control fails</text><rect x="733" y="125" width="205" height="270" rx="16" fill="white" stroke="#dbe3ec"/><text x="751.0" y="166.0" class="value" text-anchor="start">Claim 4</text><rect x="751" y="194" width="169" height="36" rx="18" fill="#7c3aed" opacity="0.12"/><text x="835.5" y="218" text-anchor="middle" style="font-size:15px;font-weight:700;fill:#7c3aed">FALSIFIED*</text><text x="751.0" y="272.0" class="label" text-anchor="start">literal target: coverage = 1</text><text x="751.0" y="304.0" class="note" text-anchor="start">verifier exit 0</text><text x="751.0" y="328.0" class="note" text-anchor="start">checker exit 0</text><text x="751.0" y="352.0" class="note" text-anchor="start">control fails</text><rect x="959" y="125" width="205" height="270" rx="16" fill="white" stroke="#dbe3ec"/><text x="977.0" y="166.0" class="value" text-anchor="start">Claim 5</text><rect x="977" y="194" width="169" height="36" rx="18" fill="#059669" opacity="0.12"/><text x="1061.5" y="218" text-anchor="middle" style="font-size:15px;font-weight:700;fill:#059669">VERIFIED</text><text x="977.0" y="272.0" class="label" text-anchor="start">DSSAT KS 0.0890 at 1e-4</text><text x="977.0" y="304.0" class="note" text-anchor="start">verifier exit 0</text><text x="977.0" y="328.0" class="note" text-anchor="start">checker exit 0</text><text x="977.0" y="352.0" class="note" text-anchor="start">control fails</text><text x="60.0" y="470.0" class="value" text-anchor="start">Honest scope</text><text x="60.0" y="505.0" class="sub" text-anchor="start">Claims 1–3 and 5 are finite, assumption-audited corroborations—not universal theorem proofs.</text><text x="60.0" y="535.0" class="sub" text-anchor="start">Claim 4 separates the supplied literal wording from Proposition 4.5&#x27;s displayed coverage target.</text></svg>
